<?xml version="1.0" encoding="UTF-8" standalone="no"?>
<!-- Created with Inkscape (http://www.inkscape.org/) -->

<svg
   width="210mm"
   height="297mm"
   viewBox="0 0 210 297"
   version="1.1"
   id="svg1"
   inkscape:version="1.3.2 (091e20e, 2023-11-25, custom)"
   sodipodi:docname="UI SVG.svg"
   xmlns:inkscape="http://www.inkscape.org/namespaces/inkscape"
   xmlns:sodipodi="http://sodipodi.sourceforge.net/DTD/sodipodi-0.dtd"
   xmlns:xlink="http://www.w3.org/1999/xlink"
   xmlns="http://www.w3.org/2000/svg"
   xmlns:svg="http://www.w3.org/2000/svg">
  <sodipodi:namedview
     id="namedview1"
     pagecolor="#505050"
     bordercolor="#eeeeee"
     borderopacity="1"
     inkscape:showpageshadow="0"
     inkscape:pageopacity="0"
     inkscape:pagecheckerboard="0"
     inkscape:deskcolor="#505050"
     inkscape:document-units="mm"
     inkscape:zoom="1.2146743"
     inkscape:cx="293.4943"
     inkscape:cy="397.22581"
     inkscape:window-width="1920"
     inkscape:window-height="1057"
     inkscape:window-x="-8"
     inkscape:window-y="-8"
     inkscape:window-maximized="1"
     inkscape:current-layer="g90"
     showguides="false" />
  <defs
     id="defs1">
    <linearGradient
       id="linearGradient64"
       inkscape:collect="always">
      <stop
         style="stop-color:#000000;stop-opacity:1;"
         offset="0"
         id="stop64" />
      <stop
         style="stop-color:#000000;stop-opacity:0;"
         offset="1"
         id="stop65" />
    </linearGradient>
    <linearGradient
       id="linearGradient53"
       inkscape:collect="always">
      <stop
         style="stop-color:#000000;stop-opacity:0;"
         offset="0.33157894"
         id="stop55" />
      <stop
         style="stop-color:#000000;stop-opacity:1;"
         offset="0.51578945"
         id="stop53" />
      <stop
         style="stop-color:#000000;stop-opacity:0;"
         offset="0.67631578"
         id="stop54" />
    </linearGradient>
    <linearGradient
       id="linearGradient51"
       inkscape:collect="always">
      <stop
         style="stop-color:#2c2c2c;stop-opacity:1;"
         offset="0"
         id="stop49" />
      <stop
         style="stop-color:#666666;stop-opacity:1;"
         offset="0.5131579"
         id="stop50" />
      <stop
         style="stop-color:#373737;stop-opacity:1;"
         offset="0.9894737"
         id="stop51" />
    </linearGradient>
    <linearGradient
       id="linearGradient40"
       inkscape:collect="always">
      <stop
         style="stop-color:#000000;stop-opacity:1;"
         offset="0"
         id="stop40" />
      <stop
         style="stop-color:#000000;stop-opacity:0;"
         offset="1"
         id="stop41" />
    </linearGradient>
    <linearGradient
       id="linearGradient28"
       inkscape:collect="always">
      <stop
         style="stop-color:#000000;stop-opacity:1;"
         offset="0"
         id="stop28" />
      <stop
         style="stop-color:#000000;stop-opacity:0;"
         offset="1"
         id="stop29" />
    </linearGradient>
    <linearGradient
       id="linearGradient24"
       inkscape:collect="always">
      <stop
         style="stop-color:#666666;stop-opacity:1;"
         offset="0"
         id="stop24" />
      <stop
         style="stop-color:#979797;stop-opacity:1;"
         offset="1"
         id="stop25" />
    </linearGradient>
    <linearGradient
       id="linearGradient13"
       inkscape:collect="always">
      <stop
         style="stop-color:#4d0000;stop-opacity:1;"
         offset="0"
         id="stop14" />
      <stop
         style="stop-color:#9e0000;stop-opacity:1;"
         offset="0.49210528"
         id="stop15" />
      <stop
         style="stop-color:#f95f5f;stop-opacity:1;"
         offset="1"
         id="stop16" />
    </linearGradient>
    <linearGradient
       id="swatch7"
       inkscape:swatch="solid">
      <stop
         style="stop-color:#666666;stop-opacity:1;"
         offset="0"
         id="stop7" />
    </linearGradient>
    <linearGradient
       inkscape:collect="always"
       xlink:href="#linearGradient51"
       id="linearGradient16"
       x1="19.45426"
       y1="22.894016"
       x2="188.40462"
       y2="22.894016"
       gradientUnits="userSpaceOnUse"
       gradientTransform="matrix(0.99384239,0,0,0.9417226,0.90850962,1.4684794)" />
    <linearGradient
       inkscape:collect="always"
       xlink:href="#linearGradient24"
       id="linearGradient25"
       x1="17.812026"
       y1="64.258856"
       x2="189.22716"
       y2="64.258856"
       gradientUnits="userSpaceOnUse"
       gradientTransform="translate(0.67137885,-33.442602)" />
    <radialGradient
       inkscape:collect="always"
       xlink:href="#linearGradient28"
       id="radialGradient29"
       cx="21.88695"
       cy="36.992973"
       fx="21.88695"
       fy="36.992973"
       r="2.1484122"
       gradientUnits="userSpaceOnUse" />
    <radialGradient
       inkscape:collect="always"
       xlink:href="#linearGradient28"
       id="radialGradient30"
       cx="21.954088"
       cy="47.802174"
       fx="21.954088"
       fy="47.802174"
       r="2.1484122"
       gradientUnits="userSpaceOnUse" />
    <radialGradient
       inkscape:collect="always"
       xlink:href="#linearGradient28"
       id="radialGradient31"
       cx="73.650261"
       cy="36.992973"
       fx="73.650261"
       fy="36.992973"
       r="2.1484122"
       gradientUnits="userSpaceOnUse" />
    <radialGradient
       inkscape:collect="always"
       xlink:href="#linearGradient28"
       id="radialGradient32"
       cx="64.855194"
       cy="47.802174"
       fx="64.855194"
       fy="47.802174"
       r="2.1484122"
       gradientUnits="userSpaceOnUse" />
    <linearGradient
       inkscape:collect="always"
       xlink:href="#linearGradient40"
       id="linearGradient44"
       gradientUnits="userSpaceOnUse"
       gradientTransform="translate(-3.418103,-1.3292627)"
       x1="132.92622"
       y1="52.695759"
       x2="132.92622"
       y2="43.580814" />
    <clipPath
       clipPathUnits="userSpaceOnUse"
       id="clipPath44">
      <path
         id="path45"
         style="fill:none;fill-opacity:1;stroke:#000000;stroke-width:0.583999;stroke-linecap:round;stroke-linejoin:round;stroke-dasharray:none;stroke-opacity:1"
         d="M 77.846928,36.807571 68.954965,48.070968 H 189.87006 V 36.807571 Z" />
    </clipPath>
    <linearGradient
       inkscape:collect="always"
       xlink:href="#linearGradient40"
       id="linearGradient45"
       gradientUnits="userSpaceOnUse"
       gradientTransform="translate(-3.418103,-1.3292627)"
       x1="132.92622"
       y1="52.695759"
       x2="132.92622"
       y2="43.580814" />
    <linearGradient
       inkscape:collect="always"
       xlink:href="#linearGradient40"
       id="linearGradient47"
       gradientUnits="userSpaceOnUse"
       gradientTransform="translate(-3.418103,-1.3292627)"
       x1="132.92622"
       y1="52.695759"
       x2="132.92622"
       y2="43.580814" />
    <linearGradient
       inkscape:collect="always"
       xlink:href="#linearGradient40"
       id="linearGradient48"
       gradientUnits="userSpaceOnUse"
       gradientTransform="translate(-3.418103,-1.3292627)"
       x1="132.92622"
       y1="52.695759"
       x2="132.92622"
       y2="43.580814" />
    <linearGradient
       inkscape:collect="always"
       xlink:href="#linearGradient13"
       id="linearGradient49"
       gradientUnits="userSpaceOnUse"
       gradientTransform="matrix(0.99384239,0,0,0.9417226,0.71861501,54.828866)"
       x1="19.45426"
       y1="22.894016"
       x2="188.40462"
       y2="22.894016" />
    <linearGradient
       inkscape:collect="always"
       xlink:href="#linearGradient53"
       id="linearGradient54"
       x1="-26.609978"
       y1="102.74545"
       x2="-15.781693"
       y2="102.74545"
       gradientUnits="userSpaceOnUse" />
    <linearGradient
       inkscape:collect="always"
       xlink:href="#linearGradient53"
       id="linearGradient56"
       gradientUnits="userSpaceOnUse"
       x1="-26.609978"
       y1="102.74545"
       x2="-15.781693"
       y2="102.74545" />
    <linearGradient
       inkscape:collect="always"
       xlink:href="#linearGradient53"
       id="linearGradient58"
       gradientUnits="userSpaceOnUse"
       x1="-26.609978"
       y1="102.74545"
       x2="-15.781693"
       y2="102.74545" />
    <linearGradient
       inkscape:collect="always"
       xlink:href="#linearGradient53"
       id="linearGradient60"
       gradientUnits="userSpaceOnUse"
       x1="-26.609978"
       y1="102.74545"
       x2="-15.781693"
       y2="102.74545" />
    <linearGradient
       inkscape:collect="always"
       xlink:href="#linearGradient64"
       id="linearGradient65"
       x1="103.97254"
       y1="86.369934"
       x2="103.77218"
       y2="78.716209"
       gradientUnits="userSpaceOnUse" />
    <linearGradient
       inkscape:collect="always"
       xlink:href="#linearGradient64"
       id="linearGradient66"
       gradientUnits="userSpaceOnUse"
       x1="103.83826"
       y1="87.84697"
       x2="103.77218"
       y2="78.58194"
       gradientTransform="translate(-207.7447,-152.32995)" />
    <radialGradient
       inkscape:collect="always"
       xlink:href="#linearGradient28"
       id="radialGradient77"
       gradientUnits="userSpaceOnUse"
       cx="73.650261"
       cy="36.992973"
       fx="73.650261"
       fy="36.992973"
       r="2.1484122" />
    <radialGradient
       inkscape:collect="always"
       xlink:href="#linearGradient28"
       id="radialGradient79"
       gradientUnits="userSpaceOnUse"
       cx="73.650261"
       cy="36.992973"
       fx="73.650261"
       fy="36.992973"
       r="2.1484122" />
    <radialGradient
       inkscape:collect="always"
       xlink:href="#linearGradient28"
       id="radialGradient83"
       gradientUnits="userSpaceOnUse"
       cx="73.650261"
       cy="36.992973"
       fx="73.650261"
       fy="36.992973"
       r="2.1484122" />
    <radialGradient
       inkscape:collect="always"
       xlink:href="#linearGradient28"
       id="radialGradient84"
       gradientUnits="userSpaceOnUse"
       cx="73.650261"
       cy="36.992973"
       fx="73.650261"
       fy="36.992973"
       r="2.1484122" />
    <clipPath
       clipPathUnits="userSpaceOnUse"
       id="clipPath84">
      <path
         id="path85"
         style="fill:#666666;fill-opacity:1;stroke:#000000;stroke-width:0.414134;stroke-linecap:round;stroke-linejoin:round;stroke-dasharray:none;stroke-opacity:1"
         d="m -69.486705,111.73357 -66.625645,83.80002 H 36.145344 l 66.625646,-83.80002 z m 18.81976,9.24149 H 88.432716 L 51.346237,167.62148 22.536241,185.02241 H -120.76408 l 35.858361,-45.10172 z"
         sodipodi:nodetypes="cccccccccccc" />
    </clipPath>
    <clipPath
       clipPathUnits="userSpaceOnUse"
       id="clipPath86">
      <path
         id="path87"
         style="fill:#666666;fill-opacity:1;stroke:#000000;stroke-width:0.394824;stroke-linecap:round;stroke-linejoin:round;stroke-dasharray:none;stroke-opacity:1"
         d="M -56.288866,101.55654 -113.01615,177.7238 H 59.241544 l 56.727286,-76.16726 z m 19.911354,8.39974 H 102.72215 L 71.14549,152.354 44.390873,168.17001 H -98.909451 l 30.531,-40.99372 z"
         sodipodi:nodetypes="cccccccccccc" />
    </clipPath>
    <clipPath
       clipPathUnits="userSpaceOnUse"
       id="clipPath88">
      <path
         id="path89"
         style="fill:#666666;fill-opacity:1;stroke:#000000;stroke-width:0.394824;stroke-linecap:round;stroke-linejoin:round;stroke-dasharray:none;stroke-opacity:1"
         d="M -56.288866,101.55654 -113.01615,177.7238 H 59.241544 l 56.727286,-76.16726 z m 19.911354,8.39974 H 102.72215 L 71.14549,152.354 44.390873,168.17001 H -98.909451 l 30.531,-40.99372 z"
         sodipodi:nodetypes="cccccccccccc" />
    </clipPath>
  </defs>
  <g
     inkscape:label="Capa 1"
     inkscape:groupmode="layer"
     id="layer1">
    <g
       id="g67"
       inkscape:label="Player UI Base"
       transform="translate(0.80565461,0.13427577)">
      <rect
         style="display:inline;fill:url(#linearGradient45);stroke:none;stroke-width:0.583999;stroke-linecap:round;stroke-linejoin:round;stroke-dasharray:none;stroke-opacity:1"
         id="rect45"
         width="129.50812"
         height="9.3048363"
         x="64.564171"
         y="42.156601"
         clip-path="url(#clipPath44)"
         transform="matrix(1,0,0,-1,0.18989462,84.91052)" />
      <path
         id="rect1"
         style="fill:url(#linearGradient25);stroke:#000000;stroke-width:0.6;stroke-linecap:round;stroke-linejoin:round;stroke-dasharray:none;stroke-opacity:1"
         d="M 18.633405,10.95557 V 50.676939 L 67.00361,50.542663 79.088429,35.235225 H 189.74854 V 10.95557 Z"
         sodipodi:nodetypes="ccccccc" />
      <rect
         style="fill:url(#linearGradient16);fill-opacity:1;stroke:#000000;stroke-width:1.06031;stroke-linecap:round;stroke-linejoin:round;stroke-dasharray:none;stroke-opacity:1"
         id="rect2"
         width="167.61609"
         height="21.121235"
         x="20.389948"
         y="12.467675" />
      <circle
         style="fill:url(#radialGradient29);fill-opacity:1;stroke:none;stroke-width:0.600001;stroke-linecap:round;stroke-linejoin:round;stroke-dasharray:none;stroke-opacity:1"
         id="path26"
         cx="21.88695"
         cy="36.992973"
         r="2.1484122" />
      <circle
         style="fill:url(#radialGradient30);fill-opacity:1;stroke:none;stroke-width:0.600001;stroke-linecap:round;stroke-linejoin:round;stroke-dasharray:none;stroke-opacity:1"
         id="circle26"
         cx="21.954088"
         cy="47.802174"
         r="2.1484122" />
      <circle
         style="fill:url(#radialGradient32);fill-opacity:1;stroke:none;stroke-width:0.600001;stroke-linecap:round;stroke-linejoin:round;stroke-dasharray:none;stroke-opacity:1"
         id="circle27"
         cx="64.855194"
         cy="47.802174"
         r="2.1484122" />
      <circle
         style="fill:#585858;fill-opacity:1;stroke:none;stroke-width:0.3;stroke-linecap:round;stroke-linejoin:round;stroke-dasharray:none;stroke-opacity:1"
         id="circle36"
         cx="64.855202"
         cy="47.802174"
         r="1.0742061" />
      <circle
         style="fill:#585858;fill-opacity:1;stroke:none;stroke-width:0.3;stroke-linecap:round;stroke-linejoin:round;stroke-dasharray:none;stroke-opacity:1"
         id="circle37"
         cx="21.886955"
         cy="47.802174"
         r="1.0742061" />
      <circle
         style="fill:#585858;fill-opacity:1;stroke:none;stroke-width:0.3;stroke-linecap:round;stroke-linejoin:round;stroke-dasharray:none;stroke-opacity:1"
         id="circle38"
         cx="21.886955"
         cy="36.8587"
         r="1.0742061" />
      <rect
         style="display:inline;fill:url(#linearGradient44);stroke:none;stroke-width:0.583999;stroke-linecap:round;stroke-linejoin:round;stroke-dasharray:none;stroke-opacity:1"
         id="rect42"
         width="129.50812"
         height="9.3048363"
         x="64.564171"
         y="42.156601"
         clip-path="url(#clipPath44)" />
      <path
         id="rect38"
         style="fill:none;fill-opacity:1;stroke:#000000;stroke-width:0.584;stroke-linecap:round;stroke-linejoin:round;stroke-dasharray:none;stroke-opacity:1"
         d="M 77.846928,36.427783 68.954964,47.691179 H 189.87006 V 36.427783 Z"
         inkscape:label="rect38" />
      <path
         id="rect72"
         style="fill:#000000;fill-opacity:0.34;stroke:none;stroke-width:0.58802;stroke-linecap:round;stroke-linejoin:round;stroke-dasharray:none;stroke-opacity:1"
         d="M 21.783664 36.042844 L 21.783664 36.767348 L 21.059161 36.767348 L 21.059161 36.940464 L 21.783664 36.940464 L 21.783664 37.664967 L 21.95678 37.664967 L 21.95678 36.940464 L 22.681284 36.940464 L 22.681284 36.767348 L 21.95678 36.767348 L 21.95678 36.042844 L 21.783664 36.042844 z " />
      <path
         id="path73"
         style="fill:#000000;fill-opacity:0.34;stroke:none;stroke-width:0.58802;stroke-linecap:round;stroke-linejoin:round;stroke-dasharray:none;stroke-opacity:1"
         d="m 21.783664,46.978529 v 0.724504 h -0.724503 v 0.173116 h 0.724503 v 0.724503 h 0.173116 v -0.724503 h 0.724504 V 47.703033 H 21.95678 v -0.724504 z" />
      <path
         id="path74"
         style="fill:#000000;fill-opacity:0.34;stroke:none;stroke-width:0.58802;stroke-linecap:round;stroke-linejoin:round;stroke-dasharray:none;stroke-opacity:1"
         d="m 64.797273,46.978529 v 0.724504 H 64.07277 v 0.173116 h 0.724503 v 0.724503 h 0.173116 v -0.724503 h 0.724504 v -0.173116 h -0.724504 v -0.724504 z" />
      <g
         id="g77"
         inkscape:label="Screw">
        <circle
           style="fill:url(#radialGradient31);fill-opacity:1;stroke:none;stroke-width:0.600001;stroke-linecap:round;stroke-linejoin:round;stroke-dasharray:none;stroke-opacity:1"
           id="circle76"
           cx="73.650261"
           cy="36.992973"
           r="2.1484122" />
        <circle
           style="fill:#585858;fill-opacity:1;stroke:none;stroke-width:0.3;stroke-linecap:round;stroke-linejoin:round;stroke-dasharray:none;stroke-opacity:1"
           id="circle77"
           cx="73.650261"
           cy="36.992973"
           r="1.0742061" />
        <path
           id="path77"
           style="fill:#000000;fill-opacity:0.34;stroke:none;stroke-width:0.58802;stroke-linecap:round;stroke-linejoin:round;stroke-dasharray:none;stroke-opacity:1"
           d="m 73.544927,36.187725 v 0.724504 h -0.724503 v 0.173116 h 0.724503 v 0.724503 h 0.173116 v -0.724503 h 0.724504 v -0.173116 h -0.724504 v -0.724504 z" />
      </g>
      <g
         id="g68"
         inkscape:label="Inscription"
         transform="matrix(0.40085087,0,0,0.40085087,21.131504,70.280181)">
        <path
           style="font-size:37.3282px;font-family:Miltonian;-inkscape-font-specification:Miltonian;text-align:center;text-anchor:middle;stroke:#9f9f9f;stroke-width:1.32218745;stroke-linecap:round;stroke-linejoin:round;stroke-dasharray:none;stroke-opacity:1"
           d="m -49.331032,77.372831 q -1.86641,0 -3.695492,-0.858549 -1.791754,-0.858548 -3.210225,-2.27702 -1.381144,-1.4558 -2.239693,-3.284882 -0.858548,-1.86641 -0.858548,-3.844805 0,-1.530456 0.223969,-3.210225 0.223969,-1.717097 0.709236,-3.359538 0.522595,-1.679769 1.306487,-3.210225 0.82122,-1.530457 1.941066,-2.687631 1.157175,-1.157174 2.650303,-1.829082 1.493128,-0.709235 3.396866,-0.709235 3.359538,0 5.561902,1.119846 2.239692,1.082517 3.546179,2.799615 1.343815,1.717097 1.86641,3.807476 0.559923,2.053051 0.559923,3.994118 0,1.754425 -0.335954,3.210225 -0.335953,1.4558 -0.858548,2.650302 -0.522595,1.194503 -1.119846,2.127708 -0.597252,0.933205 -1.119846,1.605112 -1.567785,1.978395 -3.770149,2.986257 -2.165035,0.970533 -4.55404,0.970533 z m -3.284882,-10.750522 q 0,2.314348 0.709236,4.55404 0.746564,2.202364 2.090379,4.292744 0.111985,0.186641 0.373282,0.223969 0.261298,0.03733 0.485267,0.03733 1.381143,0 2.538317,-0.447938 1.157175,-0.447939 1.493129,-1.866411 0.298625,-1.381143 0.485266,-2.351676 0.186641,-1.007862 0.261298,-1.86641 0.111984,-0.895877 0.149312,-1.829082 0.03733,-0.933205 0.03733,-2.239692 0,-0.709236 -0.03733,-1.829082 -0.03733,-1.119846 -0.186641,-2.351677 -0.149312,-1.269159 -0.447938,-2.538317 -0.261297,-1.306487 -0.746564,-2.314349 -0.447939,-1.04519 -1.157174,-1.679769 -0.671908,-0.634579 -1.642441,-0.634579 -0.709236,0 -1.418472,0.447938 -0.671907,0.41061 -1.23183,1.269159 -0.559924,0.858548 -0.895877,2.202364 -0.335954,1.306487 -0.335954,3.09824 0,1.418472 -0.261298,2.9116 -0.261297,1.493128 -0.261297,2.9116 z m -5.337933,-0.149313 q 0,1.119846 0.485267,2.575646 0.522595,1.4558 1.343815,2.799615 0.858549,1.306487 1.941067,2.27702 1.082517,0.970534 2.27702,1.157175 0,-0.03733 0,-0.07466 0.03733,-0.03733 0.03733,-0.07466 -0.41061,-0.821221 -0.82122,-2.127708 -0.410611,-1.306487 -0.783893,-2.612974 -0.335953,-1.343815 -0.559923,-2.463661 -0.223969,-1.119846 -0.223969,-1.642441 0,-0.223969 0,-0.783892 0,-0.559923 0.03733,-0.671908 l 1.829082,-10.003958 q -0.970533,0 -1.754425,0.783892 -0.783892,0.783893 -1.418472,2.015723 -0.597251,1.194503 -1.082518,2.650303 -0.447938,1.418471 -0.746564,2.724958 -0.261297,1.306487 -0.41061,2.277021 -0.149313,0.933205 -0.149313,1.194502 z m 15.603188,-0.82122 q 0,1.791753 -0.111984,3.620835 -0.111985,1.791754 -0.63458,3.658164 h 0.22397 q 0.03733,0 0.261297,-0.223969 0.223969,-0.261298 0.485267,-0.559923 0.261297,-0.335954 0.522594,-0.671908 0.261298,-0.373282 0.373282,-0.597251 0.373282,-0.709236 0.709236,-1.269159 0.373282,-0.559923 0.63458,-1.231831 0.298625,-0.709236 0.447938,-1.605112 0.186641,-0.933205 0.186641,-2.351677 0,-1.4558 -0.41061,-2.874272 -0.373282,-1.455799 -1.082518,-2.799615 -0.671908,-1.343815 -1.679769,-2.500989 -0.970533,-1.194503 -2.165036,-2.090379 0.783893,1.978394 1.231831,3.546179 0.447938,1.567784 0.671908,2.911599 0.223969,1.343816 0.261297,2.575646 0.07466,1.194503 0.07466,2.463662 z"
           id="text67"
           transform="scale(-1)"
           aria-label="0" />
        <path
           d="m 70.952083,-57.162398 q 0,-0.216225 0.525116,-0.40156 0.556006,-0.185335 1.297347,-0.37067 0.77223,-0.216225 1.575349,-0.40156 0.834008,-0.216224 1.390014,-0.432449 0.09267,-0.03089 0.463338,-0.247113 0.37067,-0.247114 0.834008,-0.525117 0.463338,-0.278002 0.895787,-0.556005 0.463338,-0.278003 0.679563,-0.432449 0.525116,-0.339781 0.648673,-0.494227 0.123557,-0.185335 0.123557,-0.432449 0,-0.154446 -0.03089,-0.308892 0,-0.185335 0,-0.463338 0.06178,-1.94602 0.09267,-4.046485 0.06178,-2.100466 0.09267,-3.984707 0.03089,-1.915131 0.03089,-3.366923 0.03089,-1.451792 0.03089,-2.100466 0,-0.247113 -0.154446,-0.278002 -0.154446,-0.03089 -0.308892,-0.03089 -0.586895,0 -1.513571,0.185336 -0.926676,0.185335 -1.822463,0.556005 -0.895786,0.339781 -1.54446,0.895787 -0.648673,0.525116 -0.648673,1.266457 0,0.525117 0.216225,0.988455 0.216224,0.463338 0.556005,0.895786 0.339781,0.40156 0.741341,0.77223 0.40156,0.339782 0.803119,0.586895 0,0.03089 0,0.09267 0.03089,0.06178 0.03089,0.09267 0,0.308893 -0.556005,0.772231 -0.556006,0.463338 -1.266457,0.895786 -0.679563,0.432449 -1.297347,0.741341 -0.617784,0.308892 -0.741341,0.308892 -0.432448,0 -0.74134,-0.37067 -0.278003,-0.370671 -0.463338,-0.864898 -0.185336,-0.525116 -0.278003,-1.019343 -0.06178,-0.525117 -0.06178,-0.80312 0,-0.37067 0,-0.648673 0.03089,-0.278003 0.09267,-0.556006 0.09267,-0.278002 0.185335,-0.586894 0.123557,-0.308892 0.308892,-0.741341 0.864898,-1.204679 1.760685,-2.069577 0.895786,-0.864897 1.91513,-1.420903 1.019344,-0.586895 2.224022,-0.864897 1.204679,-0.278003 2.687361,-0.278003 1.359125,0 2.409358,0.648673 1.050232,0.648673 1.760684,1.668017 0.710452,0.988454 1.050233,2.224022 0.37067,1.235568 0.37067,2.378469 l -1.729795,5.189385 q -1.17379,2.31669 -2.903585,4.170042 -1.698906,1.853352 -3.984707,3.08892 v 0.185336 q 0,0.09267 0.463338,0.185335 0.494227,0.06178 1.050233,0.123557 0.586895,0.06178 1.081122,0.09267 0.494227,0.03089 0.556006,0.03089 1.235568,0 2.440247,-0.09267 1.204678,-0.123557 2.471136,-0.123557 0.06178,-0.40156 0.123556,-1.17379 0.06178,-0.77223 0.216225,-1.54446 0.154446,-0.77223 0.494227,-1.328235 0.339781,-0.586895 0.957565,-0.586895 0,0.09267 -0.03089,0.40156 0,0.308892 -0.03089,0.679562 0,0.339781 -0.03089,0.648673 0,0.308892 0,0.40156 -0.03089,0.37067 -0.09267,0.957565 -0.03089,0.586895 -0.123557,1.1429 -0.06178,0.556006 -0.123557,0.957566 -0.03089,0.401559 -0.06178,0.401559 l -0.154446,0.185335 h -8.432752 q -0.617784,-0.154446 -1.019343,-0.185335 -0.370671,-0.03089 -0.957566,-0.03089 -0.926676,0 -1.822462,0.123557 -0.895787,0.123557 -1.822463,0.123557 -0.463338,0 -0.679563,-0.154446 -0.216224,-0.185336 -0.216224,-0.741341 z m 10.224325,-18.53352 q -0.339781,0 -0.432448,0.37067 -0.09267,0.339781 -0.09267,0.741341 0,0.308892 0.03089,0.556005 0.03089,0.216225 0.03089,0.308892 -0.06178,1.019344 -0.123556,1.915131 -0.03089,0.864897 -0.06178,1.760684 0,0.864898 -0.03089,1.853352 0,0.957566 0,2.224023 0,0.185335 0,0.679562 0,0.463338 0,0.988455 0.03089,0.525116 0.03089,1.019343 0,0.494227 0,0.679563 l 1.142901,-1.54446 2.502025,-5.560057 q 0.03089,-0.03089 0.03089,-0.401559 0.03089,-0.370671 0.03089,-0.556006 0,-0.586895 -0.185335,-1.451792 -0.154446,-0.864898 -0.525116,-1.668017 -0.370671,-0.803119 -0.957566,-1.359125 -0.586894,-0.556005 -1.390014,-0.556005 z m -9.081425,5.343831 q 0,0.339781 0.154446,0.803119 0.154446,0.432449 0.617784,0.432449 0.06178,0 0.247114,-0.06178 0.185335,-0.09267 0.37067,-0.185335 0.216225,-0.09267 0.370671,-0.185336 0.154446,-0.09267 0.154446,-0.154446 v -0.185335 q -0.308892,-0.617784 -0.586895,-1.1429 -0.247114,-0.432449 -0.494227,-0.77223 -0.216225,-0.370671 -0.278003,-0.370671 -0.247114,0.09267 -0.37067,0.308892 -0.09267,0.216225 -0.154446,0.494228 -0.03089,0.247113 -0.03089,0.525116 0,0.278003 0,0.494227 z"
           id="text68"
           style="font-size:30.8892px;font-family:Miltonian;-inkscape-font-specification:Miltonian;text-align:center;text-anchor:middle;stroke:#9f9f9f;stroke-width:1.32218745;stroke-linecap:round;stroke-linejoin:round;stroke-dasharray:none;stroke-opacity:1"
           transform="rotate(-8.7690526)"
           aria-label="2" />
        <path
           style="font-size:37.3282px;font-family:Miltonian;-inkscape-font-specification:Miltonian;text-align:center;text-anchor:middle;stroke-width:0.0650465;stroke-linecap:round;stroke-linejoin:round"
           d="m -49.331032,77.372831 q -1.86641,0 -3.695492,-0.858549 -1.791754,-0.858548 -3.210225,-2.27702 -1.381144,-1.4558 -2.239693,-3.284882 -0.858548,-1.86641 -0.858548,-3.844805 0,-1.530456 0.223969,-3.210225 0.223969,-1.717097 0.709236,-3.359538 0.522595,-1.679769 1.306487,-3.210225 0.82122,-1.530457 1.941066,-2.687631 1.157175,-1.157174 2.650303,-1.829082 1.493128,-0.709235 3.396866,-0.709235 3.359538,0 5.561902,1.119846 2.239692,1.082517 3.546179,2.799615 1.343815,1.717097 1.86641,3.807476 0.559923,2.053051 0.559923,3.994118 0,1.754425 -0.335954,3.210225 -0.335953,1.4558 -0.858548,2.650302 -0.522595,1.194503 -1.119846,2.127708 -0.597252,0.933205 -1.119846,1.605112 -1.567785,1.978395 -3.770149,2.986257 -2.165035,0.970533 -4.55404,0.970533 z m -3.284882,-10.750522 q 0,2.314348 0.709236,4.55404 0.746564,2.202364 2.090379,4.292744 0.111985,0.186641 0.373282,0.223969 0.261298,0.03733 0.485267,0.03733 1.381143,0 2.538317,-0.447938 1.157175,-0.447939 1.493129,-1.866411 0.298625,-1.381143 0.485266,-2.351676 0.186641,-1.007862 0.261298,-1.86641 0.111984,-0.895877 0.149312,-1.829082 0.03733,-0.933205 0.03733,-2.239692 0,-0.709236 -0.03733,-1.829082 -0.03733,-1.119846 -0.186641,-2.351677 -0.149312,-1.269159 -0.447938,-2.538317 -0.261297,-1.306487 -0.746564,-2.314349 -0.447939,-1.04519 -1.157174,-1.679769 -0.671908,-0.634579 -1.642441,-0.634579 -0.709236,0 -1.418472,0.447938 -0.671907,0.41061 -1.23183,1.269159 -0.559924,0.858548 -0.895877,2.202364 -0.335954,1.306487 -0.335954,3.09824 0,1.418472 -0.261298,2.9116 -0.261297,1.493128 -0.261297,2.9116 z m -5.337933,-0.149313 q 0,1.119846 0.485267,2.575646 0.522595,1.4558 1.343815,2.799615 0.858549,1.306487 1.941067,2.27702 1.082517,0.970534 2.27702,1.157175 0,-0.03733 0,-0.07466 0.03733,-0.03733 0.03733,-0.07466 -0.41061,-0.821221 -0.82122,-2.127708 -0.410611,-1.306487 -0.783893,-2.612974 -0.335953,-1.343815 -0.559923,-2.463661 -0.223969,-1.119846 -0.223969,-1.642441 0,-0.223969 0,-0.783892 0,-0.559923 0.03733,-0.671908 l 1.829082,-10.003958 q -0.970533,0 -1.754425,0.783892 -0.783892,0.783893 -1.418472,2.015723 -0.597251,1.194503 -1.082518,2.650303 -0.447938,1.418471 -0.746564,2.724958 -0.261297,1.306487 -0.41061,2.277021 -0.149313,0.933205 -0.149313,1.194502 z m 15.603188,-0.82122 q 0,1.791753 -0.111984,3.620835 -0.111985,1.791754 -0.63458,3.658164 h 0.22397 q 0.03733,0 0.261297,-0.223969 0.223969,-0.261298 0.485267,-0.559923 0.261297,-0.335954 0.522594,-0.671908 0.261298,-0.373282 0.373282,-0.597251 0.373282,-0.709236 0.709236,-1.269159 0.373282,-0.559923 0.63458,-1.231831 0.298625,-0.709236 0.447938,-1.605112 0.186641,-0.933205 0.186641,-2.351677 0,-1.4558 -0.41061,-2.874272 -0.373282,-1.455799 -1.082518,-2.799615 -0.671908,-1.343815 -1.679769,-2.500989 -0.970533,-1.194503 -2.165036,-2.090379 0.783893,1.978394 1.231831,3.546179 0.447938,1.567784 0.671908,2.911599 0.223969,1.343816 0.261297,2.575646 0.07466,1.194503 0.07466,2.463662 z"
           id="text69"
           transform="scale(-1)"
           aria-label="0" />
        <path
           d="m 70.952083,-57.162398 q 0,-0.216225 0.525116,-0.40156 0.556006,-0.185335 1.297347,-0.37067 0.77223,-0.216225 1.575349,-0.40156 0.834008,-0.216224 1.390014,-0.432449 0.09267,-0.03089 0.463338,-0.247113 0.37067,-0.247114 0.834008,-0.525117 0.463338,-0.278002 0.895787,-0.556005 0.463338,-0.278003 0.679563,-0.432449 0.525116,-0.339781 0.648673,-0.494227 0.123557,-0.185335 0.123557,-0.432449 0,-0.154446 -0.03089,-0.308892 0,-0.185335 0,-0.463338 0.06178,-1.94602 0.09267,-4.046485 0.06178,-2.100466 0.09267,-3.984707 0.03089,-1.915131 0.03089,-3.366923 0.03089,-1.451792 0.03089,-2.100466 0,-0.247113 -0.154446,-0.278002 -0.154446,-0.03089 -0.308892,-0.03089 -0.586895,0 -1.513571,0.185336 -0.926676,0.185335 -1.822463,0.556005 -0.895786,0.339781 -1.54446,0.895787 -0.648673,0.525116 -0.648673,1.266457 0,0.525117 0.216225,0.988455 0.216224,0.463338 0.556005,0.895786 0.339781,0.40156 0.741341,0.77223 0.40156,0.339782 0.803119,0.586895 0,0.03089 0,0.09267 0.03089,0.06178 0.03089,0.09267 0,0.308893 -0.556005,0.772231 -0.556006,0.463338 -1.266457,0.895786 -0.679563,0.432449 -1.297347,0.741341 -0.617784,0.308892 -0.741341,0.308892 -0.432448,0 -0.74134,-0.37067 -0.278003,-0.370671 -0.463338,-0.864898 -0.185336,-0.525116 -0.278003,-1.019343 -0.06178,-0.525117 -0.06178,-0.80312 0,-0.37067 0,-0.648673 0.03089,-0.278003 0.09267,-0.556006 0.09267,-0.278002 0.185335,-0.586894 0.123557,-0.308892 0.308892,-0.741341 0.864898,-1.204679 1.760685,-2.069577 0.895786,-0.864897 1.91513,-1.420903 1.019344,-0.586895 2.224022,-0.864897 1.204679,-0.278003 2.687361,-0.278003 1.359125,0 2.409358,0.648673 1.050232,0.648673 1.760684,1.668017 0.710452,0.988454 1.050233,2.224022 0.37067,1.235568 0.37067,2.378469 l -1.729795,5.189385 q -1.17379,2.31669 -2.903585,4.170042 -1.698906,1.853352 -3.984707,3.08892 v 0.185336 q 0,0.09267 0.463338,0.185335 0.494227,0.06178 1.050233,0.123557 0.586895,0.06178 1.081122,0.09267 0.494227,0.03089 0.556006,0.03089 1.235568,0 2.440247,-0.09267 1.204678,-0.123557 2.471136,-0.123557 0.06178,-0.40156 0.123556,-1.17379 0.06178,-0.77223 0.216225,-1.54446 0.154446,-0.77223 0.494227,-1.328235 0.339781,-0.586895 0.957565,-0.586895 0,0.09267 -0.03089,0.40156 0,0.308892 -0.03089,0.679562 0,0.339781 -0.03089,0.648673 0,0.308892 0,0.40156 -0.03089,0.37067 -0.09267,0.957565 -0.03089,0.586895 -0.123557,1.1429 -0.06178,0.556006 -0.123557,0.957566 -0.03089,0.401559 -0.06178,0.401559 l -0.154446,0.185335 h -8.432752 q -0.617784,-0.154446 -1.019343,-0.185335 -0.370671,-0.03089 -0.957566,-0.03089 -0.926676,0 -1.822462,0.123557 -0.895787,0.123557 -1.822463,0.123557 -0.463338,0 -0.679563,-0.154446 -0.216224,-0.185336 -0.216224,-0.741341 z m 10.224325,-18.53352 q -0.339781,0 -0.432448,0.37067 -0.09267,0.339781 -0.09267,0.741341 0,0.308892 0.03089,0.556005 0.03089,0.216225 0.03089,0.308892 -0.06178,1.019344 -0.123556,1.915131 -0.03089,0.864897 -0.06178,1.760684 0,0.864898 -0.03089,1.853352 0,0.957566 0,2.224023 0,0.185335 0,0.679562 0,0.463338 0,0.988455 0.03089,0.525116 0.03089,1.019343 0,0.494227 0,0.679563 l 1.142901,-1.54446 2.502025,-5.560057 q 0.03089,-0.03089 0.03089,-0.401559 0.03089,-0.370671 0.03089,-0.556006 0,-0.586895 -0.185335,-1.451792 -0.154446,-0.864898 -0.525116,-1.668017 -0.370671,-0.803119 -0.957566,-1.359125 -0.586894,-0.556005 -1.390014,-0.556005 z m -9.081425,5.343831 q 0,0.339781 0.154446,0.803119 0.154446,0.432449 0.617784,0.432449 0.06178,0 0.247114,-0.06178 0.185335,-0.09267 0.37067,-0.185335 0.216225,-0.09267 0.370671,-0.185336 0.154446,-0.09267 0.154446,-0.154446 v -0.185335 q -0.308892,-0.617784 -0.586895,-1.1429 -0.247114,-0.432449 -0.494227,-0.77223 -0.216225,-0.370671 -0.278003,-0.370671 -0.247114,0.09267 -0.37067,0.308892 -0.09267,0.216225 -0.154446,0.494228 -0.03089,0.247113 -0.03089,0.525116 0,0.278003 0,0.494227 z"
           id="text70"
           style="font-size:30.8892px;font-family:Miltonian;-inkscape-font-specification:Miltonian;text-align:center;text-anchor:middle;stroke-width:0.0538262;stroke-linecap:round;stroke-linejoin:round"
           transform="rotate(-8.7690526)"
           aria-label="2" />
      </g>
    </g>
    <g
       id="g48"
       inkscape:label="O2Bar"
       transform="translate(0.61576,-39.498079)">
      <path
         id="path47"
         style="fill:#0000ff;fill-opacity:1;stroke:#000000;stroke-width:0.584;stroke-linecap:round;stroke-linejoin:round;stroke-dasharray:none;stroke-opacity:1"
         d="M 77.846928,76.305652 68.954964,87.569048 H 189.87006 V 76.305652 Z" />
      <rect
         style="display:inline;fill:url(#linearGradient47);stroke:none;stroke-width:0.583999;stroke-linecap:round;stroke-linejoin:round;stroke-dasharray:none;stroke-opacity:1"
         id="rect47"
         width="129.50812"
         height="9.3048363"
         x="64.564171"
         y="42.156601"
         clip-path="url(#clipPath44)"
         transform="translate(0,39.877869)" />
      <path
         id="rect46"
         clip-path="url(#clipPath44)"
         style="display:inline;fill:url(#linearGradient48);stroke:none;stroke-width:0.583999;stroke-linecap:round;stroke-linejoin:round;stroke-dasharray:none;stroke-opacity:1"
         d="M 79.768016,51.4616 72.262531,42.156741 H 194.07215 V 51.4616 Z"
         transform="matrix(1,0,0,-1,0.18989462,124.78839)" />
    </g>
    <g
       id="g66"
       transform="translate(0.79771821,-53.173205)"
       inkscape:label="LifeBar">
      <rect
         style="fill:url(#linearGradient49);fill-opacity:1;stroke:#000000;stroke-width:1.06031;stroke-linecap:round;stroke-linejoin:round;stroke-dasharray:none;stroke-opacity:1"
         id="rect48"
         width="167.61609"
         height="21.121235"
         x="20.200054"
         y="65.828064" />
      <g
         id="g55"
         transform="translate(-9.4947307)">
        <rect
           style="fill:url(#linearGradient54);fill-opacity:1;stroke:none;stroke-width:1.42424;stroke-linecap:round;stroke-linejoin:round;stroke-dasharray:none;stroke-opacity:1"
           id="rect52"
           width="10.828285"
           height="29.115557"
           x="-26.609978"
           y="88.187675"
           transform="matrix(1,0,0.66871421,0.74351954,0,0)" />
        <rect
           style="fill:#000000;fill-opacity:1;stroke:none;stroke-width:0.43844;stroke-linecap:round;stroke-linejoin:round;stroke-dasharray:none;stroke-opacity:1"
           id="rect53"
           width="1.026154"
           height="29.115557"
           x="-21.708912"
           y="88.187675"
           transform="matrix(1,0,0.66871421,0.74351954,0,0)" />
      </g>
      <g
         id="g56"
         transform="translate(12.722939)">
        <rect
           style="fill:url(#linearGradient56);fill-opacity:1;stroke:none;stroke-width:1.42424;stroke-linecap:round;stroke-linejoin:round;stroke-dasharray:none;stroke-opacity:1"
           id="rect55"
           width="10.828285"
           height="29.115557"
           x="-26.609978"
           y="88.187675"
           transform="matrix(1,0,0.66871421,0.74351954,0,0)" />
        <rect
           style="fill:#000000;fill-opacity:1;stroke:none;stroke-width:0.43844;stroke-linecap:round;stroke-linejoin:round;stroke-dasharray:none;stroke-opacity:1"
           id="rect56"
           width="1.026154"
           height="29.115557"
           x="-21.708912"
           y="88.187675"
           transform="matrix(1,0,0.66871421,0.74351954,0,0)" />
      </g>
      <g
         id="g58"
         transform="translate(43.295972)">
        <rect
           style="fill:url(#linearGradient58);fill-opacity:1;stroke:none;stroke-width:1.42424;stroke-linecap:round;stroke-linejoin:round;stroke-dasharray:none;stroke-opacity:1"
           id="rect57"
           width="10.828285"
           height="29.115557"
           x="-26.609978"
           y="88.187675"
           transform="matrix(1,0,0.66871421,0.74351954,0,0)" />
        <rect
           style="fill:#000000;fill-opacity:1;stroke:none;stroke-width:0.43844;stroke-linecap:round;stroke-linejoin:round;stroke-dasharray:none;stroke-opacity:1"
           id="rect58"
           width="1.026154"
           height="29.115557"
           x="-21.708912"
           y="88.187675"
           transform="matrix(1,0,0.66871421,0.74351954,0,0)" />
      </g>
      <g
         id="g60"
         transform="translate(92.668572)">
        <rect
           style="fill:url(#linearGradient60);fill-opacity:1;stroke:none;stroke-width:1.42424;stroke-linecap:round;stroke-linejoin:round;stroke-dasharray:none;stroke-opacity:1"
           id="rect59"
           width="10.828285"
           height="29.115557"
           x="-26.609978"
           y="88.187675"
           transform="matrix(1,0,0.66871421,0.74351954,0,0)" />
        <rect
           style="fill:#000000;fill-opacity:1;stroke:none;stroke-width:0.43844;stroke-linecap:round;stroke-linejoin:round;stroke-dasharray:none;stroke-opacity:1"
           id="rect60"
           width="1.026154"
           height="29.115557"
           x="-21.708912"
           y="88.187675"
           transform="matrix(1,0,0.66871421,0.74351954,0,0)" />
      </g>
      <rect
         style="fill:url(#linearGradient65);fill-opacity:1;stroke:none;stroke-width:0.596654;stroke-linecap:round;stroke-linejoin:round;stroke-dasharray:none;stroke-opacity:1"
         id="rect63"
         width="167.10725"
         height="10.776519"
         x="20.318724"
         y="76.147743" />
      <rect
         style="fill:url(#linearGradient66);fill-opacity:1;stroke:none;stroke-width:0.596654;stroke-linecap:round;stroke-linejoin:round;stroke-dasharray:none;stroke-opacity:1"
         id="rect65"
         width="167.10725"
         height="10.776519"
         x="-187.42598"
         y="-76.182205"
         transform="scale(-1)" />
    </g>
    <g
       id="g90"
       inkscape:label="TextBox">
      <rect
         style="fill:#838383;fill-opacity:1;stroke:none;stroke-width:0.53;stroke-linecap:round;stroke-linejoin:round;stroke-dasharray:none;stroke-opacity:1"
         id="rect89"
         width="168.50195"
         height="46.207119"
         x="21.563322"
         y="70.54287" />
      <path
         id="rect75"
         style="fill:#666666;fill-opacity:1;stroke:#000000;stroke-width:0.322529;stroke-linecap:round;stroke-linejoin:round;stroke-dasharray:none;stroke-opacity:1"
         d="M 18.542002,67.636265 V 118.46408 H 190.7997 V 67.636265 Z m 26.167258,5.605308 139.09966,0 0,28.292777 -14.97529,10.55431 -143.300324,0 V 84.732798 Z"
         sodipodi:nodetypes="cccccccccccc"
         transform="translate(0.80565461,0.13427577)" />
      <g
         id="g76"
         inkscape:label="Screw"
         transform="translate(-50.709353,45.169067)">
        <circle
           style="fill:url(#radialGradient77);fill-opacity:1;stroke:none;stroke-width:0.600001;stroke-linecap:round;stroke-linejoin:round;stroke-dasharray:none;stroke-opacity:1"
           id="circle28"
           cx="73.650261"
           cy="36.992973"
           r="2.1484122" />
        <circle
           style="fill:#585858;fill-opacity:1;stroke:none;stroke-width:0.3;stroke-linecap:round;stroke-linejoin:round;stroke-dasharray:none;stroke-opacity:1"
           id="circle35"
           cx="73.650261"
           cy="36.992973"
           r="1.0742061" />
        <path
           id="path75"
           style="fill:#000000;fill-opacity:0.34;stroke:none;stroke-width:0.58802;stroke-linecap:round;stroke-linejoin:round;stroke-dasharray:none;stroke-opacity:1"
           d="m 73.544927,36.187725 v 0.724504 h -0.724503 v 0.173116 h 0.724503 v 0.724503 h 0.173116 v -0.724503 h 0.724504 v -0.173116 h -0.724504 v -0.724504 z" />
      </g>
      <g
         id="g79"
         inkscape:label="Screw"
         transform="translate(-33.50138,33.8423)">
        <circle
           style="fill:url(#radialGradient79);fill-opacity:1;stroke:none;stroke-width:0.600001;stroke-linecap:round;stroke-linejoin:round;stroke-dasharray:none;stroke-opacity:1"
           id="circle78"
           cx="73.650261"
           cy="36.992973"
           r="2.1484122" />
        <circle
           style="fill:#585858;fill-opacity:1;stroke:none;stroke-width:0.3;stroke-linecap:round;stroke-linejoin:round;stroke-dasharray:none;stroke-opacity:1"
           id="circle79"
           cx="73.650261"
           cy="36.992973"
           r="1.0742061" />
        <path
           id="path79"
           style="fill:#000000;fill-opacity:0.34;stroke:none;stroke-width:0.58802;stroke-linecap:round;stroke-linejoin:round;stroke-dasharray:none;stroke-opacity:1"
           d="m 73.544927,36.187725 v 0.724504 h -0.724503 v 0.173116 h 0.724503 v 0.724503 h 0.173116 v -0.724503 h 0.724504 v -0.173116 h -0.724504 v -0.724504 z" />
      </g>
      <g
         id="g81"
         inkscape:label="Screw"
         transform="translate(99.078877,78.790735)">
        <circle
           style="fill:url(#radialGradient84);fill-opacity:1;stroke:none;stroke-width:0.600001;stroke-linecap:round;stroke-linejoin:round;stroke-dasharray:none;stroke-opacity:1"
           id="circle80"
           cx="73.650261"
           cy="36.992973"
           r="2.1484122" />
        <circle
           style="fill:#585858;fill-opacity:1;stroke:none;stroke-width:0.3;stroke-linecap:round;stroke-linejoin:round;stroke-dasharray:none;stroke-opacity:1"
           id="circle81"
           cx="73.650261"
           cy="36.992973"
           r="1.0742061" />
        <path
           id="path81"
           style="fill:#000000;fill-opacity:0.34;stroke:none;stroke-width:0.58802;stroke-linecap:round;stroke-linejoin:round;stroke-dasharray:none;stroke-opacity:1"
           d="m 73.544927,36.187725 v 0.724504 h -0.724503 v 0.173116 h 0.724503 v 0.724503 h 0.173116 v -0.724503 h 0.724504 v -0.173116 h -0.724504 v -0.724504 z" />
      </g>
      <g
         id="g83"
         inkscape:label="Screw"
         transform="translate(114.32305,67.849027)">
        <circle
           style="fill:url(#radialGradient83);fill-opacity:1;stroke:none;stroke-width:0.600001;stroke-linecap:round;stroke-linejoin:round;stroke-dasharray:none;stroke-opacity:1"
           id="circle82"
           cx="73.650261"
           cy="36.992973"
           r="2.1484122" />
        <circle
           style="fill:#585858;fill-opacity:1;stroke:none;stroke-width:0.3;stroke-linecap:round;stroke-linejoin:round;stroke-dasharray:none;stroke-opacity:1"
           id="circle83"
           cx="73.650261"
           cy="36.992973"
           r="1.0742061" />
        <path
           id="path83"
           style="fill:#000000;fill-opacity:0.34;stroke:none;stroke-width:0.58802;stroke-linecap:round;stroke-linejoin:round;stroke-dasharray:none;stroke-opacity:1"
           d="m 73.544927,36.187725 v 0.724504 h -0.724503 v 0.173116 h 0.724503 v 0.724503 h 0.173116 v -0.724503 h 0.724504 v -0.173116 h -0.724504 v -0.724504 z" />
      </g>
      <rect
         style="fill:#757575;fill-opacity:1;stroke:none;stroke-width:0.68053;stroke-linecap:round;stroke-linejoin:round;stroke-dasharray:none;stroke-opacity:1"
         id="rect84"
         width="5.881206"
         height="26.57523"
         x="-71.442825"
         y="109.17394"
         transform="matrix(1,0,0.79505527,0.60653699,0,0)"
         clip-path="url(#clipPath84)" />
      <rect
         style="fill:#757575;fill-opacity:1;stroke:none;stroke-width:0.648798;stroke-linecap:round;stroke-linejoin:round;stroke-dasharray:none;stroke-opacity:1"
         id="rect85"
         width="3.4851589"
         height="43.739552"
         x="50.121006"
         y="147.21298"
         transform="matrix(1,0,0.74477258,0.66731837,0,0)"
         clip-path="url(#clipPath88)" />
      <rect
         style="fill:#757575;fill-opacity:1;stroke:none;stroke-width:0.648798;stroke-linecap:round;stroke-linejoin:round;stroke-dasharray:none;stroke-opacity:1"
         id="rect86"
         width="3.4851589"
         height="43.739552"
         x="56.541908"
         y="148.68185"
         transform="matrix(1,0,0.74477258,0.66731837,0,0)"
         clip-path="url(#clipPath86)" />
    </g>
  </g>
</svg>
